<svg width="500" height="500" viewBox="0 0 500 500" fill="none" xmlns="http://www.w3.org/2000/svg">
<path d="M-0.000488281 500C-0.000491151 467.169 6.46591 434.66 19.0296 404.329C31.5932 373.998 50.0081 346.438 73.2227 323.223C96.4373 300.009 123.997 281.594 154.328 269.03C184.66 256.466 217.169 250 249.999 250V500L-0.000488281 500Z" fill="#B2AC9C"/>
<path d="M249.998 250C249.998 282.83 256.464 315.339 269.028 345.671C281.592 376.002 300.007 403.562 323.221 426.776C346.436 449.991 373.996 468.406 404.327 480.97C434.658 493.533 467.167 500 499.998 500L499.998 250L249.998 250Z" fill="#B2AC9C"/>
<path d="M249.999 250C249.999 217.169 243.533 184.66 230.969 154.329C218.405 123.998 199.991 96.4378 176.776 73.2232C153.561 50.0086 126.002 31.5937 95.6703 19.0301C65.3389 6.46643 32.8299 0 -0.000488281 0L-0.000470942 250H249.999Z" fill="#B2AC9C"/>
<path d="M499.997 0C499.997 32.8304 493.531 65.3394 480.967 95.6707C468.404 126.002 449.989 153.562 426.774 176.776C403.559 199.991 376 218.406 345.668 230.97C315.337 243.533 282.828 250 249.998 250L249.998 0H499.997Z" fill="#B2AC9C"/>
</svg>
